<?xml version="1.0" encoding="UTF-8" standalone="no"?>
<svg
   xmlns:dc="http://purl.org/dc/elements/1.1/"
   xmlns:cc="http://creativecommons.org/ns#"
   xmlns:rdf="http://www.w3.org/1999/02/22-rdf-syntax-ns#"
   xmlns:svg="http://www.w3.org/2000/svg"
   xmlns="http://www.w3.org/2000/svg"
   xmlns:sodipodi="http://sodipodi.sourceforge.net/DTD/sodipodi-0.dtd"
   xmlns:inkscape="http://www.inkscape.org/namespaces/inkscape"
   width="32"
   height="32"
   viewBox="0 0 8.4666671 8.4666662"
   version="1.1"
   id="svg66"
   inkscape:version="1.0 (4035a4fb49, 2020-05-01)"
   sodipodi:docname="spinner-symbolic.svg">
  <defs
     id="defs60" />
  <sodipodi:namedview
     units="px"
     id="base"
     pagecolor="#ffffff"
     bordercolor="#666666"
     borderopacity="1.0"
     inkscape:pageopacity="0.0"
     inkscape:pageshadow="2"
     inkscape:zoom="7.9195959"
     inkscape:cx="13.138136"
     inkscape:cy="17.192984"
     inkscape:document-units="mm"
     inkscape:current-layer="layer1"
     inkscape:document-rotation="0"
     showgrid="false"
     fit-margin-top="0"
     fit-margin-left="0"
     fit-margin-right="0"
     fit-margin-bottom="0"
     inkscape:window-width="1562"
     inkscape:window-height="1049"
     inkscape:window-x="0"
     inkscape:window-y="358"
     inkscape:window-maximized="0" />
  <metadata
     id="metadata63">
    <rdf:RDF>
      <cc:Work
         rdf:about="">
        <dc:format>image/svg+xml</dc:format>
        <dc:type
           rdf:resource="http://purl.org/dc/dcmitype/StillImage" />
        <dc:title></dc:title>
      </cc:Work>
    </rdf:RDF>
  </metadata>
  <g
     inkscape:label="Calque 1"
     inkscape:groupmode="layer"
     id="layer1"
     transform="translate(-93.284524,-150.73514)">
    <g
       transform="matrix(2.0001576,0,0,2.0001576,93.284524,138.0359)"
       id="busywidget">
      <rect
         id="rect13"
         y="6.3499999"
         x="0"
         height="4.2329998"
         width="4.2329998"
         style="opacity:0.00100002" />
      <path
         id="pathrot-3-6"
         d="m 2.1164704,6.3482352 -0.3482669,0.348267 v 0.097143 L 2.1164704,7.1419125 2.4647373,6.7936456 V 6.6965022 Z M 0.8949523,6.8520342 0.54668525,7.2003011 v 0.097143 l 0.34826705,0.348267 0.3482672,-0.348267 v -0.097143 z m 2.4316694,0 -0.3482683,0.3482669 v 0.097143 l 0.3482683,0.348267 0.3482662,-0.348267 V 7.2003011 Z M 0.39683747,8.0678686 0.04857043,8.4161357 v 0.097143 L 0.39683747,8.8615463 0.74510462,8.5132791 v -0.097143 z m 3.43926563,0 -0.3482659,0.3482671 v 0.097143 L 3.8361031,8.861546 4.1843709,8.5132788 V 8.4161354 Z M 0.8949523,9.2837033 0.54668525,9.6319707 v 0.097141 L 0.8949523,10.077378 1.2432195,9.7291112 v -0.097141 z m 2.4316694,0 -0.3482683,0.3482674 v 0.097141 L 3.3266217,10.077378 3.6748879,9.7291112 V 9.6319707 Z M 2.1164704,9.7875016 1.7682035,10.13577 v 0.09714 l 0.3482669,0.348266 0.3482669,-0.348266 v -0.09714 z"
         style="fill:currentColor;stroke-width:0.0396839"
         class="color"
         inkscape:connector-curvature="0" />
    </g>
  </g>
</svg>
