<?xml version="1.0" encoding="UTF-8" standalone="no"?>
<svg
   xmlns:dc="http://purl.org/dc/elements/1.1/"
   xmlns:cc="http://creativecommons.org/ns#"
   xmlns:rdf="http://www.w3.org/1999/02/22-rdf-syntax-ns#"
   xmlns:svg="http://www.w3.org/2000/svg"
   xmlns="http://www.w3.org/2000/svg"
   xmlns:sodipodi="http://sodipodi.sourceforge.net/DTD/sodipodi-0.dtd"
   xmlns:inkscape="http://www.inkscape.org/namespaces/inkscape"
   width="32"
   height="32"
   viewBox="0 0 8.4666671 8.4666662"
   version="1.1"
   id="svg66"
   inkscape:version="1.0 (4035a4fb49, 2020-05-01)"
   sodipodi:docname="spinner-symbolic.svg">
  <defs
     id="defs60" />
  <sodipodi:namedview
     units="px"
     id="base"
     pagecolor="#ffffff"
     bordercolor="#666666"
     borderopacity="1.0"
     inkscape:pageopacity="0.0"
     inkscape:pageshadow="2"
     inkscape:zoom="7.9195959"
     inkscape:cx="13.138136"
     inkscape:cy="17.192984"
     inkscape:document-units="mm"
     inkscape:current-layer="layer1"
     inkscape:document-rotation="0"
     showgrid="false"
     fit-margin-top="0"
     fit-margin-left="0"
     fit-margin-right="0"
     fit-margin-bottom="0"
     inkscape:window-width="1562"
     inkscape:window-height="1049"
     inkscape:window-x="0"
     inkscape:window-y="358"
     inkscape:window-maximized="0" />
  <metadata
     id="metadata63">
    <rdf:RDF>
      <cc:Work
         rdf:about="">
        <dc:format>image/svg+xml</dc:format>
        <dc:type
           rdf:resource="http://purl.org/dc/dcmitype/StillImage" />
        <dc:title></dc:title>
      </cc:Work>
    </rdf:RDF>
  </metadata>
  <g
     inkscape:label="Calque 1"
     inkscape:groupmode="layer"
     id="layer1"
     transform="translate(-93.284524,-150.73514)">
    <g
       id="g837">
      <rect
         id="rect13"
         y="150.73691"
         x="93.284523"
         height="8.4666672"
         width="8.4666672"
         style="fill:none;opacity:0" />
      <path
         id="pathrot-3-6"
         d="m 97.517798,150.73337 -0.696588,0.69659 v 0.1943 l 0.696588,0.69659 0.696589,-0.69659 v -0.1943 z m -2.443228,1.00768 -0.696589,0.69659 v 0.1943 l 0.696589,0.69659 0.696589,-0.69659 v -0.1943 z m 4.863722,0 -0.696592,0.69659 v 0.1943 l 0.696592,0.69659 0.696588,-0.69659 v -0.1943 z m -5.860031,2.43186 -0.696588,0.69659 v 0.1943 l 0.696588,0.69659 0.69659,-0.69659 v -0.1943 z m 6.879069,0 -0.69658,0.69659 v 0.1943 l 0.69658,0.69659 0.6966,-0.69659 v -0.1943 z m -5.88276,2.43186 -0.696589,0.69659 v 0.1943 l 0.696589,0.69658 0.696589,-0.69658 v -0.1943 z m 4.863722,0 -0.696592,0.69659 v 0.1943 l 0.696592,0.69658 0.696588,-0.69658 v -0.1943 z m -2.420494,1.00768 -0.696588,0.69659 v 0.19429 l 0.696588,0.69659 0.696589,-0.69659 v -0.19429 z"
         style="fill:#e51b42;stroke-width:2.00016"
         class="color"
         inkscape:connector-curvature="0" />
    </g>
  </g>
</svg>
