<?xml version="1.0" encoding="UTF-8" standalone="no"?>
<svg
   xmlns:dc="http://purl.org/dc/elements/1.1/"
   xmlns:cc="http://creativecommons.org/ns#"
   xmlns:rdf="http://www.w3.org/1999/02/22-rdf-syntax-ns#"
   xmlns:svg="http://www.w3.org/2000/svg"
   xmlns="http://www.w3.org/2000/svg"
   xmlns:xlink="http://www.w3.org/1999/xlink"
   xmlns:sodipodi="http://sodipodi.sourceforge.net/DTD/sodipodi-0.dtd"
   xmlns:inkscape="http://www.inkscape.org/namespaces/inkscape"
   sodipodi:docname="titlebar-symbolic.svg"
   version="1.1"
   height="128"
   width="128"
   id="svg4198"
   inkscape:version="1.0 (4035a4fb49, 2020-05-01)">
  <sodipodi:namedview
     pagecolor="#ffffff"
     bordercolor="#666666"
     borderopacity="1"
     objecttolerance="10"
     gridtolerance="10"
     guidetolerance="10"
     inkscape:pageopacity="0"
     inkscape:pageshadow="2"
     inkscape:window-width="1718"
     inkscape:window-height="1407"
     id="namedview159"
     showgrid="false"
     inkscape:zoom="2.8284271"
     inkscape:cx="67.998738"
     inkscape:cy="96.113519"
     inkscape:window-x="0"
     inkscape:window-y="0"
     inkscape:window-maximized="0"
     inkscape:current-layer="svg4198"
     showguides="true"
     inkscape:guide-bbox="true"
     inkscape:snap-midpoints="false"
     inkscape:snap-object-midpoints="true"
     inkscape:snap-center="true"
     inkscape:snap-bbox="true"
     inkscape:snap-bbox-edge-midpoints="true"
     inkscape:snap-nodes="true"
     inkscape:document-rotation="0"
     fit-margin-top="0"
     fit-margin-left="0"
     fit-margin-right="0"
     fit-margin-bottom="0">
    <sodipodi:guide
       id="guide1518"
       inkscape:locked="false"
       orientation="1,0"
       position="221.80365,224.71832" />
    <sodipodi:guide
       id="guide1520"
       inkscape:locked="false"
       orientation="1,0"
       position="235.80837,264.71848" />
    <sodipodi:guide
       inkscape:locked="false"
       id="guide1780"
       orientation="0,1"
       position="235.80727,264.7188" />
    <sodipodi:guide
       inkscape:locked="false"
       id="guide1797"
       orientation="0,1"
       position="238.80365,246.42452" />
    <sodipodi:guide
       inkscape:locked="false"
       id="guide1831"
       orientation="0,1"
       position="154.80154,250.7188" />
    <sodipodi:guide
       inkscape:locked="false"
       id="guide1863"
       orientation="0,1"
       position="235.80837,224.71915" />
    <sodipodi:guide
       position="221.80325,160.71704"
       orientation="0,-1"
       id="guide333" />
    <sodipodi:guide
       id="guide1163"
       orientation="0.70710678,-0.70710678"
       position="171.80153,267.77878" />
  </sodipodi:namedview>
  <metadata
     id="metadata181">
    <rdf:RDF>
      <cc:Work
         rdf:about="">
        <dc:format>image/svg+xml</dc:format>
        <dc:type
           rdf:resource="http://purl.org/dc/dcmitype/StillImage" />
        <dc:title></dc:title>
      </cc:Work>
    </rdf:RDF>
  </metadata>
  <style
     id="style12">
      #rect1936-6 {
        fill:url(#linearGradient1786) !important;
      }
      
    #path2255-1 {
        fill:url(#linearGradient1788) !important;
      }
      #path1841-6, #path1839-0 {
      fill:#000000 !important;
      
      }
      
      </style>
  <defs
     id="defs4200">
    <linearGradient
       id="linearGradient1196"
       inkscape:collect="always">
      <stop
         id="stop1190"
         offset="0"
         style="stop-color:#ffffff;stop-opacity:0" />
      <stop
         style="stop-color:#ffffff;stop-opacity:0.1254902;"
         offset="0.05"
         id="stop1249" />
      <stop
         style="stop-color:#ffffff;stop-opacity:0.25"
         offset="0.08"
         id="stop1192" />
      <stop
         id="stop1194"
         offset="1"
         style="stop-color:#ffffff;stop-opacity:0.25" />
    </linearGradient>
    <linearGradient
       id="linearGradient1113">
      <stop
         id="stop1101"
         offset="0"
         style="stop-color:#ffffff;stop-opacity:0" />
      <stop
         style="stop-color:#ffffff;stop-opacity:0.251"
         offset="0.05"
         id="stop1103" />
      <stop
         id="stop1105"
         offset="0.89999998"
         style="stop-color:#ffffff;stop-opacity:0.25" />
      <stop
         style="stop-color:#ffffff;stop-opacity:0.75"
         offset="0.94999999"
         id="stop1107" />
      <stop
         id="stop1109"
         offset="0.97000003"
         style="stop-color:#ffffff;stop-opacity:0.5" />
      <stop
         id="stop1111"
         offset="1"
         style="stop-color:#ffffff;stop-opacity:0.25" />
    </linearGradient>
    <linearGradient
       id="linearGradient948">
      <stop
         style="stop-color:#ffffff;stop-opacity:0"
         offset="0"
         id="stop936" />
      <stop
         id="stop1245"
         offset="0.05"
         style="stop-color:#ffffff;stop-opacity:0.1254902;" />
      <stop
         id="stop938"
         offset="0.08"
         style="stop-color:#ffffff;stop-opacity:0.25" />
      <stop
         id="stop1241"
         offset="0.92000002"
         style="stop-color:#ffffff;stop-opacity:0.25" />
      <stop
         id="stop942"
         offset="0.94999999"
         style="stop-color:#ffffff;stop-opacity:0.75" />
      <stop
         style="stop-color:#ffffff;stop-opacity:0.25"
         offset="1"
         id="stop946" />
    </linearGradient>
    <linearGradient
       id="linearGradient988">
      <stop
         id="stop984"
         style="stop-color:#000000;stop-opacity:1"
         offset="0" />
      <stop
         id="stop986"
         style="stop-color:#000000;stop-opacity:0"
         offset="1" />
    </linearGradient>
    <linearGradient
       xlink:href="#linearGradient948"
       id="linearGradient1919"
       gradientUnits="userSpaceOnUse"
       gradientTransform="matrix(1.7634424,0,0,5.6740858,2.253793,404.04146)"
       x1="52.027191"
       y1="79.83802"
       x2="52.027191"
       y2="74.976303" />
    <linearGradient
       gradientTransform="matrix(3.5271015,0,0,3.2340131,-68.502074,489.01187)"
       gradientUnits="userSpaceOnUse"
       y2="105.27219"
       x2="46.155205"
       y1="113.8046"
       x1="46.155205"
       id="linearGradient2232"
       xlink:href="#linearGradient988" />
    <linearGradient
       xlink:href="#linearGradient948"
       id="linearGradient1938"
       gradientUnits="userSpaceOnUse"
       x1="133.00391"
       y1="855.05499"
       x2="133.00391"
       y2="829.46753" />
    <linearGradient
       gradientTransform="matrix(0.51020803,0,0,0.79391009,4522.5335,-5317.1085)"
       gradientUnits="userSpaceOnUse"
       y2="7742.1562"
       x2="-8617.4531"
       y1="7774.4048"
       x1="-8617.4531"
       id="linearGradient2263"
       xlink:href="#linearGradient988" />
    <linearGradient
       y2="196.28326"
       x2="40.164528"
       y1="201.14534"
       x1="40.164528"
       gradientTransform="matrix(-1.7640249,0,0,6.5820182,167.78404,-470.46175)"
       gradientUnits="userSpaceOnUse"
       id="linearGradient1766"
       xlink:href="#linearGradient988" />
    <linearGradient
       gradientTransform="matrix(3.5280495,0,0,3.7515005,-192.02703,-371.89496)"
       xlink:href="#linearGradient988"
       id="linearGradient2292"
       x1="76.088318"
       y1="113.8046"
       x2="76.088318"
       y2="105.27219"
       gradientUnits="userSpaceOnUse" />
    <linearGradient
       gradientTransform="matrix(0.93321226,0,0,0.55171639,6.7459125,386.17986)"
       gradientUnits="userSpaceOnUse"
       y2="861.46326"
       x2="100.99869"
       y1="853.46326"
       x1="100.99869"
       id="linearGradient968"
       xlink:href="#linearGradient988" />
    <linearGradient
       gradientTransform="matrix(1.5625824,0,0,0.79656837,-56.819703,175.24858)"
       gradientUnits="userSpaceOnUse"
       y2="861.46057"
       x2="133"
       y1="853.42389"
       x1="133"
       id="linearGradient976"
       xlink:href="#linearGradient988" />
    <linearGradient
       gradientTransform="matrix(-0.93346308,0,0,0.99949877,-11.272154,-798.01229)"
       gradientUnits="userSpaceOnUse"
       y2="861.47809"
       x2="-85.9991"
       y1="853.47351"
       x1="-85.9991"
       id="linearGradient984"
       xlink:href="#linearGradient988" />
    <linearGradient
       y2="74.976303"
       x2="52.027191"
       y1="79.83802"
       x1="52.027191"
       gradientTransform="matrix(1.7634424,0,0,6.5820305,-79.745254,-470.46274)"
       gradientUnits="userSpaceOnUse"
       id="linearGradient1719"
       xlink:href="#linearGradient948" />
    <linearGradient
       y2="105.27219"
       x2="46.155205"
       y1="113.8046"
       x1="46.155205"
       gradientTransform="matrix(3.5271015,0,0,3.751507,-150.50112,-371.8957)"
       gradientUnits="userSpaceOnUse"
       id="linearGradient1721"
       xlink:href="#linearGradient988" />
    <linearGradient
       y2="861.46326"
       x2="100.99869"
       y1="853.46326"
       x1="100.99869"
       gradientTransform="matrix(0.93321226,0,0,1.4500185,6.7459125,-387.67443)"
       gradientUnits="userSpaceOnUse"
       id="linearGradient1723"
       xlink:href="#linearGradient988" />
    <linearGradient
       y2="74.976303"
       x2="52.027191"
       y1="79.83802"
       x1="52.027191"
       gradientTransform="matrix(1.7640249,0,0,10.28437,-185.77658,32.36031)"
       gradientUnits="userSpaceOnUse"
       id="linearGradient1725"
       xlink:href="#linearGradient948" />
    <linearGradient
       y2="105.27219"
       x2="76.088318"
       y1="113.8046"
       x1="76.088318"
       gradientTransform="matrix(-3.5280495,0,0,5.8617006,362.03318,186.37041)"
       gradientUnits="userSpaceOnUse"
       id="linearGradient1727"
       xlink:href="#linearGradient988" />
    <linearGradient
       y2="861.47809"
       x2="-85.9991"
       y1="853.47351"
       x1="-85.9991"
       gradientTransform="matrix(0.93346308,0,0,1,-6.7203884,0)"
       gradientUnits="userSpaceOnUse"
       id="linearGradient1729"
       xlink:href="#linearGradient988" />
    <linearGradient
       y2="74.976303"
       x2="52.027191"
       y1="79.83802"
       x1="52.027191"
       gradientTransform="matrix(6.2983696,0,0,10.285046,-201.68776,32.325301)"
       gradientUnits="userSpaceOnUse"
       id="linearGradient1731"
       xlink:href="#linearGradient948" />
    <linearGradient
       y2="7742.1562"
       x2="-8617.4531"
       y1="7774.4048"
       x1="-8617.4531"
       gradientTransform="matrix(0.51020803,0,0,1.55101,4522.5335,-11204.702)"
       gradientUnits="userSpaceOnUse"
       id="linearGradient1733"
       xlink:href="#linearGradient988" />
    <linearGradient
       y2="861.46057"
       x2="133"
       y1="853.44055"
       x1="133"
       gradientTransform="matrix(1.5625824,0,0,1,-56.819703,0)"
       gradientUnits="userSpaceOnUse"
       id="linearGradient1735"
       xlink:href="#linearGradient988" />
    <linearGradient
       y2="74.976303"
       x2="52.027191"
       y1="79.83802"
       x1="52.027191"
       gradientTransform="matrix(1.7634424,0,0,9.5441143,2.253793,87.88033)"
       gradientUnits="userSpaceOnUse"
       id="linearGradient1880"
       xlink:href="#linearGradient948" />
    <linearGradient
       y2="105.27219"
       x2="46.155205"
       y1="113.8046"
       x1="46.155205"
       gradientTransform="matrix(3.5271015,0,0,5.4397822,-68.502074,230.80508)"
       gradientUnits="userSpaceOnUse"
       id="linearGradient1882"
       xlink:href="#linearGradient988" />
    <linearGradient
       y2="861.46326"
       x2="100.99869"
       y1="853.46326"
       x1="100.99869"
       gradientTransform="matrix(0.93321226,0,0,1,6.7459125,0)"
       gradientUnits="userSpaceOnUse"
       id="linearGradient1884"
       xlink:href="#linearGradient988" />
    <linearGradient
       y2="74.976303"
       x2="52.027191"
       y1="79.83802"
       x1="52.027191"
       gradientTransform="matrix(1.7640249,0,0,9.5495511,-185.77658,87.454295)"
       gradientUnits="userSpaceOnUse"
       id="linearGradient1886"
       xlink:href="#linearGradient948" />
    <linearGradient
       y2="105.27219"
       x2="76.088318"
       y1="113.8046"
       x1="76.088318"
       gradientTransform="matrix(-3.5280495,0,0,5.4428817,362.03318,230.46036)"
       gradientUnits="userSpaceOnUse"
       id="linearGradient1888"
       xlink:href="#linearGradient988" />
    <linearGradient
       y2="861.47809"
       x2="-85.9991"
       y1="853.47351"
       x1="-85.9991"
       gradientTransform="matrix(0.93346308,0,0,1,-6.7203884,0)"
       gradientUnits="userSpaceOnUse"
       id="linearGradient1890"
       xlink:href="#linearGradient988" />
    <linearGradient
       y2="74.976303"
       x2="52.027191"
       y1="79.83802"
       x1="52.027191"
       gradientTransform="matrix(6.2983696,0,0,9.5440624,-201.68776,87.8815)"
       gradientUnits="userSpaceOnUse"
       id="linearGradient1892"
       xlink:href="#linearGradient948" />
    <linearGradient
       y2="7742.1562"
       x2="-8617.4531"
       y1="7774.4048"
       x1="-8617.4531"
       gradientTransform="matrix(0.51020803,0,0,1.4392679,4522.5335,-10339.577)"
       gradientUnits="userSpaceOnUse"
       id="linearGradient1894"
       xlink:href="#linearGradient988" />
    <linearGradient
       y2="861.46057"
       x2="133"
       y1="853.44055"
       x1="133"
       gradientTransform="matrix(1.5625824,0,0,1,-56.819703,0)"
       gradientUnits="userSpaceOnUse"
       id="linearGradient1896"
       xlink:href="#linearGradient988" />
    <linearGradient
       inkscape:collect="always"
       xlink:href="#linearGradient1196"
       id="linearGradient1174"
       gradientUnits="userSpaceOnUse"
       x1="86.999046"
       y1="849.86646"
       x2="119.00245"
       y2="849.86646" />
    <linearGradient
       id="linearGradient4452-5"
       x1="-260"
       x2="-260"
       y1="288"
       y2="291"
       gradientUnits="userSpaceOnUse"
       xlink:href="#linearGradient4465"
       gradientTransform="translate(-0.06102,7)" />
    <linearGradient
       id="linearGradient4465">
      <stop
         id="stop71"
         style="stop-color:#000000;stop-opacity:0.50980395"
         offset="0" />
      <stop
         id="stop73"
         style="stop-color:#000000;stop-opacity:0"
         offset="1" />
    </linearGradient>
    <linearGradient
       id="linearGradient4259-7"
       x1="15.00002"
       x2="15.00002"
       y1="-962.36322"
       y2="-959.36322"
       gradientTransform="matrix(0.71428571,0,0,1,-317.71429,1257.3022)"
       gradientUnits="userSpaceOnUse"
       xlink:href="#linearGradient4465" />
    <linearGradient
       id="linearGradient4315-5"
       x1="79.486938"
       x2="79.486938"
       y1="-962.36218"
       y2="-959.36218"
       gradientTransform="matrix(0.71428571,0,0,1,-317.77533,1257.3622)"
       gradientUnits="userSpaceOnUse"
       xlink:href="#linearGradient4465" />
    <linearGradient
       id="linearGradient4317-3"
       x1="85.000023"
       x2="85.000023"
       y1="-962.36218"
       y2="-959.55603"
       gradientTransform="matrix(0.71428571,0,0,1,-317.7143,1257.4232)"
       gradientUnits="userSpaceOnUse"
       xlink:href="#linearGradient4465" />
    <linearGradient
       gradientTransform="matrix(2.5599177,0,0,5.001008,-206.4454,-3969.536)"
       inkscape:collect="always"
       xlink:href="#linearGradient948"
       id="linearGradient1786"
       gradientUnits="userSpaceOnUse"
       x1="133.00391"
       y1="855.05499"
       x2="133.00391"
       y2="829.46753" />
    <linearGradient
       inkscape:collect="always"
       xlink:href="#linearGradient988"
       id="linearGradient1788"
       gradientUnits="userSpaceOnUse"
       gradientTransform="matrix(1.3060906,0,0,3.9703507,11318.767,-30739.076)"
       x1="-8617.4531"
       y1="7774.4048"
       x2="-8617.4531"
       y2="7742.1562" />
  </defs>
  <path
     inkscape:connector-curvature="0"
     d="m 0.00572568,98.304617 v 17.315993 0 -0.56577 H 128 v -0.47309 H 0.00572568 v -0.7519 L 128,113.69882 0.00572568,113.65381 v -0.47309 H 128 v 0 c 0,0 -33.870222,-0.0705 -77.487892,-0.064 -31.104664,0 -50.50638232,0.05 -50.50638232,0.05 v -0.68238 H 46.767282 v 0 c 40.231615,-0.002 81.232718,0 81.232718,0 v -0.4811 H 0.00572568 v -0.23455 -1.12438 H 128 v -0.24604 H 0.00572568 V 109.6154 H 128 v -0.0835 H 0.00572568 v -0.3806 H 128 v -0.34957 c 0,0 -106.445348,-0.045 -105.93362,-0.0565 0.959457,-0.05 0.40933,-0.13953 -1.75252,-0.18704 -1.93156,-0.045 -4.963015,0 -6.242206,0.11553 -1.465962,0.10352 -14.06592832,0.19404 -14.06592832,0.19404 v -0.18704 -0.11502 -0.27006 c 0,0 25.16862432,-0.003 16.06084732,0 -4.472049,-0.002 -16.06084732,0 -16.06084732,0 V 107.6365 H 128 v -0.34157 H 0.00572568 v -0.72175 H 128 v -0.27005 H 0.00572568 v -4.10208 H 128 v -0.0835 l -127.99427432,0.045 v -0.63568 c 0,0 53.39112832,0 35.04499132,-0.045 H 0.00572568 v -3.202898 z m 0,17.315993 v 0 c 0,0 5.25476862,0.056 11.53291532,0.064 5.986598,0 8.595103,-0.045 6.497251,-0.064 -2.417689,-0.045 -18.03016632,0 -18.03016632,0 z m 0,0 v 0 12.36834 H 128 v -4.21855 c 0,0 -135.9922687,0 -87.727383,-0.045 H 128 v -1.45004 l -127.99168881,-0.064 v 0 H 128 v -0.72105 c 0,0 -64.198924,-0.11852 -114.708839,-0.13053 -8.1535427,0 -13.28284981,-0.064 -13.28284981,-0.064 v -0.05 H 128 v -1.30306 l -127.99168881,-0.045 v -0.064 H 128 v -0.99265 H 0.00831119 v -0.21055 H 128 v -0.48059 H 0.00831119 v -0.05 H 128 v -0.31007 l -127.99168881,-0.05 v -0.19403 c 0,0 17.59776981,-0.045 46.75909881,-0.045 v 0 H 128 v -0.26256 H 0.00582807 v -0.0755 H 128 v -0.7211 H 0.00582807 v -0.30206 L 128,116.0945 v -0.33356 H 0.00582807 Z M 85.51888,99.134385 c -3.364627,0.04501 -0.560852,0.05651 6.494768,0.05651 7.009899,0 9.516182,-0.04501 6.497301,-0.05651 -3.384749,-0.04501 -9.410283,-0.04501 -12.992069,0 z m -1.994815,2.372725 c -2.417715,0.045 -0.305987,0.0565 5.002463,0.0565 4.873673,0 6.421272,-0.045 4.48966,-0.0565 -2.417688,-0.045 -6.882543,-0.045 -9.492123,0 z m -70.957412,1.62068 v 0 c -2.903817,0.045 -1.854404,0.064 2.494768,0.0705 3.722479,0 5.640215,-0.045 4.744756,-0.0705 -1.445432,-0.045 -4.387033,-0.045 -7.239524,0 z m 80.207137,2.7142 C 83.20172,105.8985 128,105.94901 128,105.94901 v -0.064 c 0,0 -28.062665,-0.091 -35.22621,-0.05 z m -3.502403,2.41153 c -3.377018,0.045 -0.563847,0.0565 6.49725,0.0565 7.252993,0 10.323893,-0.045 6.742183,-0.0565 -3.377657,-0.045 -9.65734,-0.045 -13.239433,0 z m -55.468092,0.21105 c -3.364218,0 -4.898633,0.045 -3.74731,0.11502 1.445458,0.0565 2.723957,0.12302 3.74731,0.12302 0.959457,0 2.546862,-0.05 3.99232,-0.12302 1.458282,-0.0565 -0.538479,-0.11502 -3.99232,-0.11502 z m -13.739437,3.27981 v 0 c -4.835377,0.045 -1.955598,0.05 6.499759,0.0565 8.237944,0 12.073903,-0.045 8.49222,-0.0565 -3.388665,-0.045 -10.346086,-0.045 -14.98947,0 z m 27.981437,0 c -3.364628,0.045 -0.560853,0.0565 6.494793,0.0565 7.009925,0 9.516186,-0.045 6.497276,-0.0565 -3.384749,-0.045 -9.410258,-0.045 -12.992069,0 z m 54.934935,2.39623 c -14.215604,0 -25.984135,0.045 -25.984135,0.083 0,0.045 10.989445,0.091 24.236735,0.091 13.29965,0 26.76717,-0.091 26.76717,-0.091 0,0 -10.80544,-0.083 -25.01977,-0.083 z m -53.84057,0.083 c -2.79072,0.045 -1.566132,0.0565 7.367136,0.0565 10.300084,0 14.890759,0 10.247325,-0.05 -4.545032,-0.045 -11.990169,-0.045 -17.614461,0 z m 4.622392,1.13192 c -2.903843,0.045 -1.85699,0.0715 2.492259,0.079 3.722351,0 5.642724,0 4.747393,-0.064 -1.44556,-0.045 -4.387136,-0.045 -7.239652,0 z m 74.237948,0 c 0,0 -61.742606,0.003 -61.998444,0 -0.334018,0 61.998444,0.045 61.998444,0.045 z m -37.016975,0.23455 c -14.939577,0.045 37.016975,0.05 37.016975,0.05 v -0.05 z m -54.200139,0 c -5.711535,0.045 -2.057893,0.0565 8.239607,0.064 10.233476,0 15.132979,-0.045 10.489442,-0.064 -4.832664,-0.045 -13.024298,-0.045 -18.729049,0 z"
     style="opacity:0.25;"
     id="path1839-0" />
  <path
     inkscape:connector-curvature="0"
     id="path1841-6"
     style="opacity:0.1"
     d="m 16.301343,66.541065 c -2.353691,0.025 -1.880414,0.07501 2.251345,0.07501 3.965492,0.0026 6.447101,-0.025 5.001644,-0.07501 -1.279191,-0.04501 -4.349249,-0.04501 -7.24019,-0.005 z M 0.00311456,70.28662 v 0.07502 L 128,70.346632 v -0.04501 L 0.00311456,70.296622 Z M 128,75.272925 v 0.005 z m -127.99688544,0.005 v 0.015 c 0,0 76.42378344,-0.0025 76.51076944,-0.005 0.101116,-0.0019 -76.51076944,-0.005 -76.51076944,-0.005 z m 30.53938344,0.4891 c -6.152891,-0.015 -6.562196,0.015 -2.49441,0.105521 h 0.256017 c 6.319209,0.134527 6.140091,0.134527 8.493807,0.02501 1.023353,-0.05651 -1.893187,-0.120524 -6.242436,-0.120524 z m -19.23768,0.05651 c -2.9037142,-0.04501 -11.30170344,0.04501 -11.30170344,0.04501 v 0.120525 c 0,0 19.04975544,-0.07502 11.31452944,-0.171035 z m 19.737862,1.194291 c -21.229372,0.02501 -4.75858,0.04501 36.477214,0.04501 41.046536,1.5e-4 58.442176,-0.015 38.475356,-0.04501 -19.987246,-0.025 -53.728344,-0.025 -74.95257,0 z M 128,77.901805 v 0.05651 z m 0,0 v 0.05651 z M 0.00311456,78.226871 V 78.42041 H 128 V 78.234372 Z M 27.294679,79.521882 c -4.592288,0.025 -1.023379,0.05651 8.250742,0.05651 9.376416,0 13.329108,-0.02501 8.493756,-0.05651 -4.643409,-0.02501 -11.909198,-0.02501 -16.73943,0 z m -27.29156444,0.005 v 0.05651 c 0,0 16.47217444,-0.025 14.05453744,-0.05651 -2.609529,-0.025 -14.05453744,0 -14.05453744,0 z m 0,0.333067 v 0.09002 L 128,79.934965 v -0.05651 z M 128,80.084995 0.00311456,80.11 v 0.09002 L 128,80.215021 Z M 0.00311456,80.968923 v 0.39608 c 0,0 37.02360344,-0.005 73.01346044,-0.005 C 128,81.360802 128,81.365003 128,81.365003 v -0.380076 c 0,0 -30.799114,-0.0025 -51.484836,-0.005 -19.901569,-0.0026 -76.51204944,-0.005 -76.51204944,-0.005 z m 0,0.636429 v 0.120024 0.120524 c 0,0 10.10824444,-0.05651 11.55372744,-0.120524 C 12.708089,81.650361 0.00311456,81.605352 0.00311456,81.605352 Z M 128,81.661863 c 0,0 -87.843143,0.0025 -87.712664,0.005 0.127996,0.0025 87.712664,0.015 87.712664,0.015 z M 0.00311456,82.150962 v 0.457592 L 128,82.613555 v -0.450591 z m 0,0.852321 v 0.318565 L 128,83.346853 V 82.997282 H 0.00311456 Z m 0,0.798211 v 0.418585 H 128 v -0.411083 l -127.99688544,-0.005 z m 0,0.659183 V 84.77074 H 128 v -0.303061 z m 0,0.628677 V 85.51594 L 128,85.520941 v -0.433588 z m 0,0.682337 v 0.39458 L 128,86.151268 v 0 -0.364574 c 0,0 -9.98806,0.005 -28.749875,0.005 -78.930864,-3.49e-4 -99.24701044,-0.025 -99.24701044,-0.025 z m 0,0.54321 v 0.340568 H 128 V 86.322402 Z M 128,87.019843 0.00311456,87.034846 v 0.325065 L 128,87.384917 Z m 0,0.404081 -127.99688544,0.005 v 0.512004 H 128 Z M 0.00311456,88.222185 v 0.705042 L 128,88.932228 V 88.248991 L 0.00311456,88.223986 Z m 0,1.123877 v 0.619675 L 128,89.990742 v -0.64358 c 0,0 -90.077874,0.02501 -90.70979,0.005 -0.06758,-0.002 -37.28709544,-0.005 -37.28709544,-0.005 z m 0,0.829917 v 0.465094 L 128,90.596064 v -0.39458 z m 10.81178644,0.4966 c 1.547829,0.09002 -10.81178644,0.120524 -10.81178644,0.120524 v -0.05651 1.24095 L 128,91.982543 v -0.790809 -0.04501 -0.418585 c 0,0 -113.460111,-0.005 -114.694529,-0.04501 -2.80142,-0.09002 -3.9526922,-0.105521 -2.49441,-0.015 z m 5.500521,0.465594 c 2.852568,-0.025 5.794707,-0.025 7.24019,0.005 1.279165,0.04501 -0.895434,0.05651 -4.74578,0.05651 -4.349249,-0.005 -5.39815,-0.02501 -2.49441,-0.07502 z M 128,92.185484 c 0,0 -42.870816,0.015 -95.944233,0.015 -20.831535,-0.0014 -32.05265244,-0.005 -32.05265244,-0.005 v 3.458647 L 128,95.649132 v -1.084868 c 0,0 -96.568443,0.09002 -102.68936,0.02501 C 21.780078,94.54426 55.073446,94.49925 99.262925,94.483747 115.60582,94.481247 128,94.508752 128,94.508752 v -0.612423 c 0,0 -65.949856,-0.005 -42.228635,-0.015 11.742931,-0.0026 42.228635,0 42.228635,0 z m -89.197774,0.450591 c 2.852593,-0.02501 5.79468,-0.02501 7.240164,0.005 0.895459,0.04501 -1.023353,0.07502 -4.745755,0.07502 -4.349249,-0.005 -5.398175,-0.04501 -2.494409,-0.07502 z M 0.00311456,95.846322 v 0.651381 H 128 v -0.636528 0 z M 128,96.505355 0.00311456,96.53036 v 4.9629 c 0,0 25.68744344,-0.005 35.05108444,0 18.346085,0.015 -35.05108444,0.025 -35.05108444,0.025 v 0.63657 L 128,102.12984 Z m -42.478073,2.621228 c 3.581709,-0.025 9.60668,-0.025 12.991377,0 3.018916,0.02501 0.511702,0.05601 -6.498248,0.05601 -7.061098,0 -9.875318,-0.025 -6.498249,-0.05601 z m -1.995533,2.372877 c 2.609529,-0.025 7.073898,-0.025 9.491561,0 1.93156,0.025 0.383603,0.056 -4.489942,0.056 -5.30863,0 -7.419308,-0.025 -5.001619,-0.056 z m -83.52327944,0.70509 v 4.10998 L 128,106.29953 v -0.36457 0.005 c 0,0 -44.795976,-0.045 -35.223804,-0.10552 7.163418,-0.045 35.223804,0.045 35.223804,0.045 v -3.66113 L 0.00311456,102.21331 Z M 12.56865,103.11994 c 2.852593,-0.025 5.794732,-0.025 7.240241,0.005 0.895408,0.045 -1.023379,0.075 -4.745832,0.075 -4.349198,-0.005 -5.3981495,-0.045 -2.494409,-0.075 z m -12.56553544,3.44289 v 0.67539 L 128,107.23322 v -0.65914 L 0.00311456,106.56908 Z M 128,107.57134 0.00311456,107.57634 v 0.65908 c 0,0 11.59340644,-0.002 16.06540344,0 9.107803,0.003 -16.06540344,0.005 -16.06540344,0.005 v 0.27155 0.12003 0.18604 c 0,0 12.60393444,-0.0895 14.06989644,-0.19354 1.279191,-0.10552 4.31085,-0.16003 6.242411,-0.12053 2.16185,0.045 2.7119,0.13453 1.752468,0.18554 -0.511651,0.025 105.93211,0.0565 105.93211,0.0565 z m -38.727538,0.67538 c 3.581735,-0.025 9.862544,-0.025 13.240888,0 3.58171,0.025 0.51166,0.0565 -6.741334,0.0565 -7.061123,0 -9.875292,-0.025 -6.498274,-0.0565 z m -55.465455,0.20904 c 3.45379,0 5.449322,0.0565 3.99104,0.12053 -1.445458,0.075 -3.03166,0.12052 -3.99104,0.12052 -1.023378,0 -2.302569,-0.0565 -3.748027,-0.12052 -1.151272,-0.075 0.383604,-0.12053 3.748027,-0.12053 z m -33.80389244,0.64348 v 0.38008 H 128 v -0.38008 z M 128,109.56484 0.00311456,109.57984 v 0.78331 H 128 Z m 0,1.04741 -127.99688544,0.015 v 1.12393 0.23254 L 128,111.97872 Z m -107.934017,1.12397 c 4.643435,-0.025 11.602238,-0.025 14.990776,0.005 3.581709,0.025 -0.256018,0.0565 -8.493807,0.0565 -8.455434,-0.001 -11.333549,-0.025 -6.498249,-0.0565 z m 27.982153,0.005 c 3.58176,-0.025 9.606731,-0.025 12.991429,0 3.018911,0.025 0.511702,0.0565 -6.498249,0.0565 -7.061097,0 -9.875317,-0.025 -6.498248,-0.0565 z m -1.279139,0.70504 c -28.119058,0.002 -46.76588244,0.005 -46.76588244,0.005 v 0.68239 c 0,0 19.40791344,-0.045 50.51260344,-0.045 C 94.133362,113.0861 128,113.14516 128,113.14516 v -0.69799 c 0,0 -40.999362,-0.002 -81.231003,0 z M 128,113.16806 0.00311456,113.17306 v 0.4726 L 128,113.67066 0.00311456,113.80519 v 0.7518 L 128,114.55199 Z m -25.01721,0.9694 c 14.2143,0 25.01721,0.09 25.01721,0.09 0,0 -13.46617,0.09 -26.76584,0.09 -13.247263,0 -24.235454,-0.045 -24.235454,-0.09 0,-0.045 11.768505,-0.09 25.984084,-0.09 z m -54.965321,0.09 c 5.70516,-0.025 13.903476,-0.015 18.738776,0.005 4.643461,0.025 0.0535,0.045 -10.246275,0.045 -10.297423,-8e-4 -14.200222,-0.025 -8.493781,-0.056 z M 128,115.03334 0.00311456,115.03834 v 0.79081 L 128,115.82415 v -0.19354 0.015 c 0,0 -51.952994,-0.015 -37.013417,-0.045 10.143927,-0.015 37.013417,0 37.013417,0 v -0.19354 c 0,0 -62.331054,-0.015 -61.997215,-0.025 0.256017,-0.015 61.997215,-0.015 61.997215,-0.015 z m -74.236412,0.32607 c 2.852567,-0.025 5.794706,-0.025 7.240189,0.015 0.895408,0.045 -1.023352,0.0565 -4.74578,0.0565 -4.349249,-0.005 -5.398201,-0.045 -2.494409,-0.075 z m -53.76047344,0.24754 c 0,0 15.61767344,-0.025 18.03536244,0.005 2.097853,0.025 -0.511676,0.0565 -6.498274,0.0565 -6.2807838,-0.002 -11.53708844,-0.0565 -11.53708844,-0.0565 z m 36.77160544,0 c 5.70516,-0.025 13.90345,-0.025 18.738776,0 4.643409,0.025 -0.255991,0.0565 -10.489339,0.0565 -10.297397,-9e-4 -13.949529,-0.025 -8.237918,-0.0565 z M 128,116.15792 0.00311456,116.18292 v 0.30306 L 128,116.49098 Z M 0.00311456,117.22028 v 0.075 L 128,117.28029 v -0.0565 z m 46.76588244,0.32607 c -29.164144,-0.003 -46.76588244,0.025 -46.76588244,0.025 v 0.19354 L 128,117.8099 v -0.005 -0.26356 c 0,0 -30.891195,0.005 -81.233563,0 z m -46.76588244,0.57356 v 0.045 L 128,118.15992 v -0.025 z m 0,0.51901 v 0.20904 L 128,118.84296 v -0.20054 z m 0,1.19444 v 0.0565 L 128,119.91487 v -0.0895 z M 128,121.22899 0.00311456,121.23399 v 0.045 c 0,0 5.13347974,0.045 13.28699644,0.0565 C 63.800078,121.35051 128,121.47004 128,121.47004 Z m 0,0.96934 -127.99688544,0.015 v 0.005 L 128,122.27485 Z m -87.728023,1.53541 C 0.00311456,123.74875 128,123.75875 128,123.75875 v -0.025 c 0,0 -63.596165,-0.005 -87.728023,0 z" />
  <rect
     class="success"
     y="4.9753908e-05"
     x="-3.0780136e-06"
     height="127.99993"
     width="128"
     id="rect970-2"
     style="opacity:0.2;fill:#c91e3c;fill-opacity:1" />
  <rect
     id="rect1936-6"
     width="128"
     height="127.99993"
     x="52.101326"
     y="178.63776" />
  <path
     inkscape:connector-curvature="0"
     id="path2255-1"
     style="opacity:0.25;"
     d="M 0.00221859,5.8855896 V 6.2966724 H 127.99908 V 5.8855896 Z m 0,11.8256834 v 1.38803 H 127.99908 v -1.38803 z m 0,10.693355 v 0.226546 H 127.99908 v -0.226546 z m 0,16.114048 v 0.736899 H 127.99908 v -0.736899 z m 0,9.530421 v 0.233547 H 127.99908 v -0.233547 z m 0,4.001357 v 0.783358 H 127.99908 v -0.783358 z m 0,8.545722 v 0.286058 H 127.99908 v -0.286058 z m 0,9.22791 v 0.349071 H 127.99908 v -0.349071 z m 0,4.831124 v 1.333769 H 127.99908 V 80.65521 Z m 0,7.312524 v 0.155031 H 127.99908 v -0.155031 z m 0,3.102075 v 1.4889 H 127.99908 v -1.4889 z m 0,8.049123 v 0.775456 H 127.99908 v -0.775456 z m 0,9.266868 v 0.30206 H 127.99908 v -0.30206 z m 0,3.09397 v 0.27756 H 127.99908 v -0.27756 z m 0,4.63699 v 0.95419 H 127.99908 v -0.95419 z" />
  <path
     inkscape:connector-curvature="0"
     class="error"
     d="M 0.00221859,5.8855896 V 6.2966724 H 78.816478 l 0.857138,0.2860577 0.489763,-0.2860577 H 127.99908 V 5.8855896 Z m 0,11.8257834 v 1.38808 H 18.5094 41.828944 l 40.982286,0.538909 18.93264,-0.538909 26.25521,-1.5e-4 v -1.38803 l -26.08198,-0.015 -14.949895,0.0026 z m 0,10.693255 v 0.226546 H 127.99908 v -0.226546 z m 0,16.114048 v 0.736899 H 75.191993 l 2.308867,-0.07051 11.890664,0.07051 H 127.99908 V 44.518676 H 91.469486 Z m 0,9.530421 v 0.233547 H 127.99908 v -0.233547 z m 0,4.001357 v 0.783358 H 47.716525 l 12.121568,0.269554 2.655173,-0.269554 h 65.505814 v -0.783358 z m 0,8.545722 v 0.286058 H 127.99908 v -0.286058 z m 0,9.22791 v 0.349071 H 127.99908 v -0.349071 h -25.26483 l -3.101033,0.174035 -2.898825,-0.174035 z m 0,4.831124 v 1.333769 H 127.99908 V 80.65521 Z m 0,7.312524 v 0.155031 H 127.99908 v -0.155031 z m 0,3.102075 v 1.4889 H 76.000108 l 6.464842,-0.404581 16.508346,0.404581 h 29.025784 v -1.4889 H 79.232516 L 62.031482,91.473391 21.164649,91.055306 Z m 0,8.049123 v 0.775456 H 24.166101 l 7.189426,0.163532 7.356436,-0.163532 H 127.99908 V 99.118932 H 40.443594 l -11.65976,0.14903 -7.272905,-0.14903 z m 0,9.266868 v 0.30206 H 112.50901 l 0.75037,-0.04 0.69266,0.04 h 14.04704 v -0.30206 z m 0,3.09397 v 0.27756 H 127.99908 v -0.27756 h -7.00499 l -1.24102,0.0705 -1.32757,-0.0705 z m 0,4.63699 v 0.95419 H 127.99908 v -0.95419 H 67.428992 l -1.255307,0.24905 -1.152782,-0.24905 z"
     style="opacity:0.75;fill:rgb(255,248,247)"
     id="rect1678-8" />
</svg>
