<?xml version="1.0" encoding="UTF-8" standalone="no"?>
<svg
   xmlns:dc="http://purl.org/dc/elements/1.1/"
   xmlns:cc="http://creativecommons.org/ns#"
   xmlns:rdf="http://www.w3.org/1999/02/22-rdf-syntax-ns#"
   xmlns:svg="http://www.w3.org/2000/svg"
   xmlns="http://www.w3.org/2000/svg"
   xmlns:xlink="http://www.w3.org/1999/xlink"
   xmlns:sodipodi="http://sodipodi.sourceforge.net/DTD/sodipodi-0.dtd"
   xmlns:inkscape="http://www.inkscape.org/namespaces/inkscape"
   inkscape:version="1.0 (4035a4fb49, 2020-05-01)"
   id="svg4198"
   width="128"
   height="128"
   version="1.1"
   sodipodi:docname="titlebar-backdrop-symbolic.svg">
  <sodipodi:namedview
     fit-margin-bottom="0"
     fit-margin-right="0"
     fit-margin-left="0"
     fit-margin-top="0"
     inkscape:document-rotation="0"
     inkscape:snap-nodes="true"
     inkscape:snap-bbox-edge-midpoints="true"
     inkscape:snap-bbox="true"
     inkscape:snap-center="true"
     inkscape:snap-object-midpoints="true"
     inkscape:snap-midpoints="false"
     inkscape:guide-bbox="true"
     showguides="true"
     inkscape:current-layer="svg4198"
     inkscape:window-maximized="1"
     inkscape:window-y="0"
     inkscape:window-x="0"
     inkscape:cy="110.09753"
     inkscape:cx="80.7631"
     inkscape:zoom="2.8284271"
     showgrid="false"
     id="namedview159"
     inkscape:window-height="1440"
     inkscape:window-width="3440"
     inkscape:pageshadow="2"
     inkscape:pageopacity="0"
     guidetolerance="10"
     gridtolerance="10"
     objecttolerance="10"
     borderopacity="1"
     bordercolor="#666666"
     pagecolor="#ffffff">
    <sodipodi:guide
       position="221.80365,224.71836"
       orientation="1,0"
       inkscape:locked="false"
       id="guide1518" />
    <sodipodi:guide
       position="235.80837,264.71852"
       orientation="1,0"
       inkscape:locked="false"
       id="guide1520" />
    <sodipodi:guide
       position="235.80727,264.71884"
       orientation="0,1"
       id="guide1780"
       inkscape:locked="false" />
    <sodipodi:guide
       position="238.80365,246.42456"
       orientation="0,1"
       id="guide1797"
       inkscape:locked="false" />
    <sodipodi:guide
       position="154.80154,250.71884"
       orientation="0,1"
       id="guide1831"
       inkscape:locked="false" />
    <sodipodi:guide
       position="235.80837,224.71919"
       orientation="0,1"
       id="guide1863"
       inkscape:locked="false" />
    <sodipodi:guide
       id="guide333"
       orientation="0,-1"
       position="221.80325,160.71708" />
    <sodipodi:guide
       position="171.80153,267.77882"
       orientation="0.70710678,-0.70710678"
       id="guide1163" />
  </sodipodi:namedview>
  <metadata
     id="metadata181">
    <rdf:RDF>
      <cc:Work
         rdf:about="">
        <dc:format>image/svg+xml</dc:format>
        <dc:type
           rdf:resource="http://purl.org/dc/dcmitype/StillImage" />
        <dc:title></dc:title>
      </cc:Work>
    </rdf:RDF>
  </metadata>
  <style>
      #rect1936-6 {
        fill:url(#linearGradient1786) !important;
      }
      
    #path2255-1 {
        fill:url(#linearGradient1788) !important;
      }
      #path1841-6, #path1839-0 {
      fill:#000000 !important;
      
      }
      
      </style>
  <defs
     id="defs4200">
    <linearGradient
       inkscape:collect="always"
       id="linearGradient1196">
      <stop
         style="stop-color:#ffffff;stop-opacity:0"
         offset="0"
         id="stop1190" />
      <stop
         id="stop1249"
         offset="0.05"
         style="stop-color:#ffffff;stop-opacity:0.1254902;" />
      <stop
         id="stop1192"
         offset="0.08"
         style="stop-color:#ffffff;stop-opacity:0.25" />
      <stop
         style="stop-color:#ffffff;stop-opacity:0.25"
         offset="1"
         id="stop1194" />
    </linearGradient>
    <linearGradient
       id="linearGradient1113">
      <stop
         style="stop-color:#ffffff;stop-opacity:0"
         offset="0"
         id="stop1101" />
      <stop
         id="stop1103"
         offset="0.05"
         style="stop-color:#ffffff;stop-opacity:0.251" />
      <stop
         style="stop-color:#ffffff;stop-opacity:0.25"
         offset="0.89999998"
         id="stop1105" />
      <stop
         id="stop1107"
         offset="0.94999999"
         style="stop-color:#ffffff;stop-opacity:0.75" />
      <stop
         style="stop-color:#ffffff;stop-opacity:0.5"
         offset="0.97000003"
         id="stop1109" />
      <stop
         style="stop-color:#ffffff;stop-opacity:0.25"
         offset="1"
         id="stop1111" />
    </linearGradient>
    <linearGradient
       id="linearGradient948">
      <stop
         id="stop936"
         offset="0"
         style="stop-color:#ffffff;stop-opacity:0" />
      <stop
         style="stop-color:#ffffff;stop-opacity:0.1254902;"
         offset="0.05"
         id="stop1245" />
      <stop
         style="stop-color:#ffffff;stop-opacity:0.25"
         offset="0.08"
         id="stop938" />
      <stop
         style="stop-color:#ffffff;stop-opacity:0.25"
         offset="0.92000002"
         id="stop1241" />
      <stop
         style="stop-color:#ffffff;stop-opacity:0.75"
         offset="0.94999999"
         id="stop942" />
      <stop
         id="stop946"
         offset="1"
         style="stop-color:#ffffff;stop-opacity:0.25" />
    </linearGradient>
    <linearGradient
       id="linearGradient988">
      <stop
         offset="0"
         style="stop-color:#000000;stop-opacity:1"
         id="stop984" />
      <stop
         offset="1"
         style="stop-color:#000000;stop-opacity:0"
         id="stop986" />
    </linearGradient>
    <linearGradient
       y2="74.976303"
       x2="52.027191"
       y1="79.83802"
       x1="52.027191"
       gradientTransform="matrix(1.7634424,0,0,5.6740858,2.253793,404.04146)"
       gradientUnits="userSpaceOnUse"
       id="linearGradient1919"
       xlink:href="#linearGradient948" />
    <linearGradient
       xlink:href="#linearGradient988"
       id="linearGradient2232"
       x1="46.155205"
       y1="113.8046"
       x2="46.155205"
       y2="105.27219"
       gradientUnits="userSpaceOnUse"
       gradientTransform="matrix(3.5271015,0,0,3.2340131,-68.502074,489.01187)" />
    <linearGradient
       y2="829.46753"
       x2="133.00391"
       y1="855.05499"
       x1="133.00391"
       gradientUnits="userSpaceOnUse"
       id="linearGradient1938"
       xlink:href="#linearGradient948" />
    <linearGradient
       xlink:href="#linearGradient988"
       id="linearGradient2263"
       x1="-8617.4531"
       y1="7774.4048"
       x2="-8617.4531"
       y2="7742.1562"
       gradientUnits="userSpaceOnUse"
       gradientTransform="matrix(0.51020803,0,0,0.79391009,4522.5335,-5317.1085)" />
    <linearGradient
       xlink:href="#linearGradient988"
       id="linearGradient1766"
       gradientUnits="userSpaceOnUse"
       gradientTransform="matrix(-1.7640249,0,0,6.5820182,167.78404,-470.46175)"
       x1="40.164528"
       y1="201.14534"
       x2="40.164528"
       y2="196.28326" />
    <linearGradient
       gradientUnits="userSpaceOnUse"
       y2="105.27219"
       x2="76.088318"
       y1="113.8046"
       x1="76.088318"
       id="linearGradient2292"
       xlink:href="#linearGradient988"
       gradientTransform="matrix(3.5280495,0,0,3.7515005,-192.02703,-371.89496)" />
    <linearGradient
       xlink:href="#linearGradient988"
       id="linearGradient968"
       x1="100.99869"
       y1="853.46326"
       x2="100.99869"
       y2="861.46326"
       gradientUnits="userSpaceOnUse"
       gradientTransform="matrix(0.93321226,0,0,0.55171639,6.7459125,386.17986)" />
    <linearGradient
       xlink:href="#linearGradient988"
       id="linearGradient976"
       x1="133"
       y1="853.42389"
       x2="133"
       y2="861.46057"
       gradientUnits="userSpaceOnUse"
       gradientTransform="matrix(1.5625824,0,0,0.79656837,-56.819703,175.24858)" />
    <linearGradient
       xlink:href="#linearGradient988"
       id="linearGradient984"
       x1="-85.9991"
       y1="853.47351"
       x2="-85.9991"
       y2="861.47809"
       gradientUnits="userSpaceOnUse"
       gradientTransform="matrix(-0.93346308,0,0,0.99949877,-11.272154,-798.01229)" />
    <linearGradient
       xlink:href="#linearGradient948"
       id="linearGradient1719"
       gradientUnits="userSpaceOnUse"
       gradientTransform="matrix(1.7634424,0,0,6.5820305,-79.745254,-470.46274)"
       x1="52.027191"
       y1="79.83802"
       x2="52.027191"
       y2="74.976303" />
    <linearGradient
       xlink:href="#linearGradient988"
       id="linearGradient1721"
       gradientUnits="userSpaceOnUse"
       gradientTransform="matrix(3.5271015,0,0,3.751507,-150.50112,-371.8957)"
       x1="46.155205"
       y1="113.8046"
       x2="46.155205"
       y2="105.27219" />
    <linearGradient
       xlink:href="#linearGradient988"
       id="linearGradient1723"
       gradientUnits="userSpaceOnUse"
       gradientTransform="matrix(0.93321226,0,0,1.4500185,6.7459125,-387.67443)"
       x1="100.99869"
       y1="853.46326"
       x2="100.99869"
       y2="861.46326" />
    <linearGradient
       xlink:href="#linearGradient948"
       id="linearGradient1725"
       gradientUnits="userSpaceOnUse"
       gradientTransform="matrix(1.7640249,0,0,10.28437,-185.77658,32.36031)"
       x1="52.027191"
       y1="79.83802"
       x2="52.027191"
       y2="74.976303" />
    <linearGradient
       xlink:href="#linearGradient988"
       id="linearGradient1727"
       gradientUnits="userSpaceOnUse"
       gradientTransform="matrix(-3.5280495,0,0,5.8617006,362.03318,186.37041)"
       x1="76.088318"
       y1="113.8046"
       x2="76.088318"
       y2="105.27219" />
    <linearGradient
       xlink:href="#linearGradient988"
       id="linearGradient1729"
       gradientUnits="userSpaceOnUse"
       gradientTransform="matrix(0.93346308,0,0,1,-6.7203884,0)"
       x1="-85.9991"
       y1="853.47351"
       x2="-85.9991"
       y2="861.47809" />
    <linearGradient
       xlink:href="#linearGradient948"
       id="linearGradient1731"
       gradientUnits="userSpaceOnUse"
       gradientTransform="matrix(6.2983696,0,0,10.285046,-201.68776,32.325301)"
       x1="52.027191"
       y1="79.83802"
       x2="52.027191"
       y2="74.976303" />
    <linearGradient
       xlink:href="#linearGradient988"
       id="linearGradient1733"
       gradientUnits="userSpaceOnUse"
       gradientTransform="matrix(0.51020803,0,0,1.55101,4522.5335,-11204.702)"
       x1="-8617.4531"
       y1="7774.4048"
       x2="-8617.4531"
       y2="7742.1562" />
    <linearGradient
       xlink:href="#linearGradient988"
       id="linearGradient1735"
       gradientUnits="userSpaceOnUse"
       gradientTransform="matrix(1.5625824,0,0,1,-56.819703,0)"
       x1="133"
       y1="853.44055"
       x2="133"
       y2="861.46057" />
    <linearGradient
       xlink:href="#linearGradient948"
       id="linearGradient1880"
       gradientUnits="userSpaceOnUse"
       gradientTransform="matrix(1.7634424,0,0,9.5441143,2.253793,87.88033)"
       x1="52.027191"
       y1="79.83802"
       x2="52.027191"
       y2="74.976303" />
    <linearGradient
       xlink:href="#linearGradient988"
       id="linearGradient1882"
       gradientUnits="userSpaceOnUse"
       gradientTransform="matrix(3.5271015,0,0,5.4397822,-68.502074,230.80508)"
       x1="46.155205"
       y1="113.8046"
       x2="46.155205"
       y2="105.27219" />
    <linearGradient
       xlink:href="#linearGradient988"
       id="linearGradient1884"
       gradientUnits="userSpaceOnUse"
       gradientTransform="matrix(0.93321226,0,0,1,6.7459125,0)"
       x1="100.99869"
       y1="853.46326"
       x2="100.99869"
       y2="861.46326" />
    <linearGradient
       xlink:href="#linearGradient948"
       id="linearGradient1886"
       gradientUnits="userSpaceOnUse"
       gradientTransform="matrix(1.7640249,0,0,9.5495511,-185.77658,87.454295)"
       x1="52.027191"
       y1="79.83802"
       x2="52.027191"
       y2="74.976303" />
    <linearGradient
       xlink:href="#linearGradient988"
       id="linearGradient1888"
       gradientUnits="userSpaceOnUse"
       gradientTransform="matrix(-3.5280495,0,0,5.4428817,362.03318,230.46036)"
       x1="76.088318"
       y1="113.8046"
       x2="76.088318"
       y2="105.27219" />
    <linearGradient
       xlink:href="#linearGradient988"
       id="linearGradient1890"
       gradientUnits="userSpaceOnUse"
       gradientTransform="matrix(0.93346308,0,0,1,-6.7203884,0)"
       x1="-85.9991"
       y1="853.47351"
       x2="-85.9991"
       y2="861.47809" />
    <linearGradient
       xlink:href="#linearGradient948"
       id="linearGradient1892"
       gradientUnits="userSpaceOnUse"
       gradientTransform="matrix(6.2983696,0,0,9.5440624,-201.68776,87.8815)"
       x1="52.027191"
       y1="79.83802"
       x2="52.027191"
       y2="74.976303" />
    <linearGradient
       xlink:href="#linearGradient988"
       id="linearGradient1894"
       gradientUnits="userSpaceOnUse"
       gradientTransform="matrix(0.51020803,0,0,1.4392679,4522.5335,-10339.577)"
       x1="-8617.4531"
       y1="7774.4048"
       x2="-8617.4531"
       y2="7742.1562" />
    <linearGradient
       xlink:href="#linearGradient988"
       id="linearGradient1896"
       gradientUnits="userSpaceOnUse"
       gradientTransform="matrix(1.5625824,0,0,1,-56.819703,0)"
       x1="133"
       y1="853.44055"
       x2="133"
       y2="861.46057" />
    <linearGradient
       y2="849.86646"
       x2="119.00245"
       y1="849.86646"
       x1="86.999046"
       gradientUnits="userSpaceOnUse"
       id="linearGradient1174"
       xlink:href="#linearGradient1196"
       inkscape:collect="always" />
    <linearGradient
       gradientTransform="translate(-0.06102,7)"
       xlink:href="#linearGradient4465"
       gradientUnits="userSpaceOnUse"
       y2="291"
       y1="288"
       x2="-260"
       x1="-260"
       id="linearGradient4452-5" />
    <linearGradient
       id="linearGradient4465">
      <stop
         offset="0"
         style="stop-color:#000000;stop-opacity:0.50980395"
         id="stop71" />
      <stop
         offset="1"
         style="stop-color:#000000;stop-opacity:0"
         id="stop73" />
    </linearGradient>
    <linearGradient
       xlink:href="#linearGradient4465"
       gradientUnits="userSpaceOnUse"
       gradientTransform="matrix(0.71428571,0,0,1,-317.71429,1257.3022)"
       y2="-959.36322"
       y1="-962.36322"
       x2="15.00002"
       x1="15.00002"
       id="linearGradient4259-7" />
    <linearGradient
       xlink:href="#linearGradient4465"
       gradientUnits="userSpaceOnUse"
       gradientTransform="matrix(0.71428571,0,0,1,-317.77533,1257.3622)"
       y2="-959.36218"
       y1="-962.36218"
       x2="79.486938"
       x1="79.486938"
       id="linearGradient4315-5" />
    <linearGradient
       xlink:href="#linearGradient4465"
       gradientUnits="userSpaceOnUse"
       gradientTransform="matrix(0.71428571,0,0,1,-317.7143,1257.4232)"
       y2="-959.55603"
       y1="-962.36218"
       x2="85.000023"
       x1="85.000023"
       id="linearGradient4317-3" />
    <linearGradient
       y2="829.46753"
       x2="133.00391"
       y1="855.05499"
       x1="133.00391"
       gradientUnits="userSpaceOnUse"
       id="linearGradient1786"
       xlink:href="#linearGradient948"
       inkscape:collect="always" />
    <linearGradient
       y2="7742.1562"
       x2="-8617.4531"
       y1="7774.4048"
       x1="-8617.4531"
       gradientTransform="matrix(0.51020803,0,0,0.79391009,4522.5335,-5317.1085)"
       gradientUnits="userSpaceOnUse"
       id="linearGradient1788"
       xlink:href="#linearGradient988"
       inkscape:collect="always" />
  </defs>
  <g
     id="g2405"
     transform="translate(178.21508,-958.1822)" />
  <g
     id="layer1"
     transform="translate(70.803227,-244.36428)" />
  <g
     style="stroke-width:0.894337"
     transform="matrix(2.5599177,0,0,5.001008,-258.54672,-4148.1737)"
     id="decoration-maximized-overlay">
    <rect
       class="warning"
       y="829.46753"
       x="100.99889"
       height="25.594828"
       width="50.000771"
       id="rect1837-6"
       style="fill:currentColor;stroke-width:0.799919" />
    <path
       inkscape:connector-curvature="0"
       d="m 101.0003,849.12448 v 3.4625 0 -0.11313 h 49.99937 v -0.0946 H 101.0003 v -0.15035 l 49.99937,-0.0262 -49.99937,-0.009 v -0.0946 h 49.99937 v 0 c 0,0 -13.23098,-0.0141 -30.26968,-0.0128 -12.15065,0 -19.72969,0.01 -19.72969,0.01 v -0.13645 h 18.26682 v 0 c 15.71598,-3.9e-4 31.73255,0 31.73255,0 v -0.0962 H 101.0003 v -0.0469 -0.22483 h 49.99937 v -0.0492 H 101.0003 v -0.15654 h 49.99937 v -0.0167 H 101.0003 v -0.0761 h 49.99937 v -0.0699 c 0,0 -41.58155,-0.009 -41.38165,-0.0113 0.3748,-0.01 0.1599,-0.0279 -0.6846,-0.0374 -0.75454,-0.009 -1.93874,0 -2.43844,0.0231 -0.57266,0.0207 -5.49468,0.0388 -5.49468,0.0388 v -0.0374 -0.023 -0.054 c 0,0 9.83181,-5.1e-4 6.27397,0 -1.74695,-4e-4 -6.27397,0 -6.27397,0 v -0.1318 h 49.99937 v -0.0683 H 101.0003 v -0.14432 h 49.99937 v -0.054 H 101.0003 v -0.82025 h 49.99937 v -0.0167 l -49.99937,0.009 v -0.12711 c 0,0 20.85658,0 13.68989,-0.009 H 101.0003 v -0.64045 z m 0,3.4625 v 0 c 0,0 2.05271,0.0112 4.50519,0.0128 2.33859,0 3.35757,-0.009 2.53807,-0.0128 -0.94444,-0.009 -7.04326,0 -7.04326,0 z m 0,0 v 0 2.47317 h 49.99937 v -0.84354 c 0,0 -53.123687,0 -34.26961,-0.009 h 34.26961 v -0.28995 l -49.99836,-0.0128 v 0 h 49.99836 v -0.14418 c 0,0 -25.07851,-0.0237 -44.80958,-0.0261 -3.18508,0 -5.18878,-0.0128 -5.18878,-0.0128 v -0.01 h 49.99836 v -0.26056 l -49.99836,-0.009 v -0.0128 h 49.99836 v -0.19849 h -49.99836 v -0.0421 h 49.99836 v -0.0961 h -49.99836 v -0.01 h 49.99836 v -0.062 l -49.99836,-0.01 v -0.0388 c 0,0 6.87435,-0.009 18.26586,-0.009 v 0 h 31.7325 v -0.0525 h -49.99933 v -0.0151 h 49.99933 v -0.14419 h -49.99933 v -0.0604 l 49.99933,-0.009 v -0.0667 h -49.99933 z m 33.40465,-3.29658 c -1.31435,0.009 -0.21909,0.0113 2.5371,0.0113 2.73833,0 3.71738,-0.009 2.53809,-0.0113 -1.32221,-0.009 -3.67601,-0.009 -5.07519,0 z m -0.77925,0.47445 c -0.94445,0.009 -0.11953,0.0113 1.95415,0.0113 1.90384,0 2.50839,-0.009 1.75383,-0.0113 -0.94444,-0.009 -2.68858,-0.009 -3.70798,0 z m -27.71863,0.32407 v 0 c -1.13434,0.009 -0.7244,0.0128 0.97455,0.0141 1.45414,0 2.20328,-0.009 1.85348,-0.0141 -0.56464,-0.009 -1.71374,-0.009 -2.82803,0 z m 31.33192,0.54273 c -3.73921,0.0113 13.76068,0.0214 13.76068,0.0214 v -0.0128 c 0,0 -10.96233,-0.0182 -13.76068,-0.01 z m -1.36817,0.48221 c -1.31919,0.009 -0.22026,0.0113 2.53807,0.0113 2.83329,0 4.0329,-0.009 2.63375,-0.0113 -1.31944,-0.009 -3.77252,-0.009 -5.17182,0 z m -21.66792,0.0422 c -1.31419,0 -1.91359,0.009 -1.46384,0.023 0.56465,0.0113 1.06408,0.0246 1.46384,0.0246 0.3748,0 0.9949,-0.01 1.55955,-0.0246 0.56966,-0.0113 -0.21035,-0.023 -1.55955,-0.023 z m -5.36714,0.65583 v 0 c -1.88888,0.009 -0.76393,0.01 2.53905,0.0113 3.21805,0 4.71652,-0.009 3.31738,-0.0113 -1.32374,-0.009 -4.04157,-0.009 -5.85545,0 z m 10.9306,0 c -1.31435,0.009 -0.21909,0.0113 2.53711,0.0113 2.73834,0 3.71738,-0.009 2.53808,-0.0113 -1.32221,-0.009 -3.676,-0.009 -5.07519,0 z m 21.45965,0.47915 c -5.55315,0 -10.15038,0.009 -10.15038,0.0166 0,0.009 4.29289,0.0182 9.46778,0.0182 5.19534,0 10.45626,-0.0182 10.45626,-0.0182 0,0 -4.22101,-0.0166 -9.77366,-0.0166 z m -21.03215,0.0166 c -1.09016,0.009 -0.61179,0.0113 2.87788,0.0113 4.0236,0 5.81689,0 4.00299,-0.01 -1.77546,-0.009 -4.68381,-0.009 -6.88087,0 z m 1.80568,0.22634 c -1.13435,0.009 -0.72541,0.0143 0.97357,0.0158 1.45409,0 2.20426,0 1.85451,-0.0128 -0.56469,-0.009 -1.71378,-0.009 -2.82808,0 z m 29.00013,0 c 0,0 -24.11898,5.2e-4 -24.21892,0 -0.13048,0 24.21892,0.009 24.21892,0.009 z m -14.46022,0.0469 c -5.83596,0.009 14.46022,0.01 14.46022,0.01 v -0.01 z m -21.17261,0 c -2.23114,0.009 -0.80389,0.0113 3.2187,0.0128 3.99758,0 5.91151,-0.009 4.09757,-0.0128 -1.88782,-0.009 -5.08778,-0.009 -7.31627,0 z"
       style="opacity:0.25;fill:#000000;stroke-width:0.894337"
       id="path1839-0" />
    <path
       inkscape:connector-curvature="0"
       id="path1841-6"
       style="opacity:0.1;fill:#000000;stroke-width:0.894337"
       d="m 107.36598,842.77305 c -0.91944,0.005 -0.73456,0.015 0.87946,0.015 1.54907,5.2e-4 2.51848,-0.005 1.95383,-0.015 -0.4997,-0.009 -1.69898,-0.009 -2.82829,-10e-4 z m -6.3667,0.74896 v 0.015 l 50.00039,-0.003 v -0.009 l -50.00039,-10e-4 z m 50.00039,0.99706 v 10e-4 z m -50.00039,10e-4 v 0.003 c 0,0 29.854,-5.1e-4 29.88798,-10e-4 0.0395,-3.9e-4 -29.88798,-10e-4 -29.88798,-10e-4 z m 11.92983,0.0978 c -2.40355,-0.003 -2.56344,0.003 -0.97441,0.0211 h 0.10001 c 2.46852,0.0269 2.39855,0.0269 3.318,0.005 0.39976,-0.0113 -0.73955,-0.0241 -2.43853,-0.0241 z m -7.51496,0.0113 c -1.1343,-0.009 -4.41487,0.009 -4.41487,0.009 v 0.0241 c 0,0 7.44155,-0.015 4.41988,-0.0342 z m 7.71035,0.23881 c -8.29299,0.005 -1.85888,0.009 14.24937,0.009 16.03432,3e-5 22.82971,-0.003 15.02992,-0.009 -7.80777,-0.005 -20.98831,-0.005 -29.27929,0 z m 37.87517,0.17676 v 0.0113 z m 0,0 v 0.0113 z m -50.00039,0.065 v 0.0387 h 50.00039 v -0.0372 z m 10.66111,0.25895 c -1.79392,0.005 -0.39977,0.0113 3.22305,0.0113 3.66278,0 5.20685,-0.005 3.31798,-0.0113 -1.81389,-0.005 -4.65218,-0.005 -6.53905,0 z m -10.66111,10e-4 v 0.0113 c 0,0 6.43465,-0.005 5.49023,-0.0113 -1.01938,-0.005 -5.49023,0 -5.49023,0 z m 0,0.0666 v 0.018 l 50.00039,-0.003 v -0.0113 z m 50.00039,0.045 -50.00039,0.005 v 0.018 l 50.00039,0.003 z m -50.00039,0.17675 v 0.0792 c 0,0 14.46281,-0.001 28.5218,-0.001 21.47859,1.6e-4 21.47859,0.001 21.47859,0.001 v -0.076 c 0,0 -12.03129,-5e-4 -20.11191,-10e-4 -7.7743,-5.1e-4 -29.88848,-0.001 -29.88848,-0.001 z m 0,0.12726 v 0.024 0.0241 c 0,0 3.94866,-0.0113 4.51332,-0.0241 0.44972,-0.015 -4.51332,-0.024 -4.51332,-0.024 z m 50.00039,0.0113 c 0,0 -34.31483,5.1e-4 -34.26386,10e-4 0.05,5.1e-4 34.26386,0.003 34.26386,0.003 z m -50.00039,0.0978 v 0.0915 l 50.00039,10e-4 v -0.0901 z m 0,0.17043 v 0.0637 l 50.00039,0.005 v -0.0699 h -50.00039 z m 0,0.15961 v 0.0837 h 50.00039 v -0.0822 l -50.00039,-0.001 z m 0,0.13181 v 0.062 h 50.00039 v -0.0606 z m 0,0.12571 v 0.0853 l 50.00039,10e-4 v -0.0867 z m 0,0.13644 v 0.0789 l 50.00039,-0.003 v 0 -0.0729 c 0,0 -3.90171,10e-4 -11.23078,10e-4 -30.83336,-7e-5 -38.76961,-0.005 -38.76961,-0.005 z m 0,0.10862 v 0.0681 h 50.00039 v -0.0666 z m 50.00039,0.14096 -50.00039,0.003 v 0.065 l 50.00039,0.005 z m 0,0.0808 -50.00039,10e-4 v 0.10238 h 50.00039 z m -50.00039,0.15962 v 0.14098 l 50.00039,10e-4 v -0.13662 l -50.00039,-0.005 z m 0,0.22473 v 0.12391 l 50.00039,0.005 v -0.12869 c 0,0 -35.1878,0.005 -35.43465,10e-4 -0.0264,-3.9e-4 -14.56574,-10e-4 -14.56574,-10e-4 z m 0,0.16595 v 0.093 l 50.00039,-0.009 v -0.0789 z m 4.22349,0.0993 c 0.60464,0.018 -4.22349,0.0241 -4.22349,0.0241 v -0.0113 0.24814 l 50.00039,10e-4 v -0.15813 -0.009 -0.0837 c 0,0 -44.32178,-0.001 -44.80399,-0.009 -1.09434,-0.018 -1.54407,-0.0211 -0.97441,-0.003 z m 2.14871,0.0931 c 1.11432,-0.005 2.26363,-0.005 2.82829,0.001 0.49969,0.009 -0.34979,0.0113 -1.85388,0.0113 -1.69898,-0.001 -2.10872,-0.005 -0.97441,-0.015 z m 43.62819,0.20942 c 0,0 -16.74695,0.003 -37.47942,0.003 -8.13758,-2.8e-4 -12.52097,-10e-4 -12.52097,-10e-4 v 0.69159 l 50.00039,-10e-4 v -0.21693 c 0,0 -37.72326,0.018 -40.11432,0.005 -1.37917,-0.009 11.62647,-0.018 28.88854,-0.0211 6.38415,-5e-4 11.22578,0.005 11.22578,0.005 V 848.243 c 0,0 -25.76249,-0.001 -16.49609,-0.003 4.58723,-5.1e-4 16.49609,0 16.49609,0 z m -34.844,0.0901 c 1.11433,-0.005 2.26362,-0.005 2.82828,10e-4 0.3498,0.009 -0.39976,0.015 -1.85387,0.015 -1.69898,-10e-4 -2.10873,-0.009 -0.97441,-0.015 z m -15.15639,0.64192 v 0.13025 h 50.00039 v -0.12728 0 z m 50.00039,0.13178 -50.00039,0.005 v 0.99238 c 0,0 10.03448,-10e-4 13.69227,0 7.16667,0.003 -13.69227,0.005 -13.69227,0.005 v 0.12729 l 50.00039,-0.005 z m -16.59353,0.52414 c 1.39915,-0.005 3.75273,-0.005 5.07492,0 1.1793,0.005 0.19989,0.0112 -2.53846,0.0112 -2.75833,0 -3.85767,-0.005 -2.53846,-0.0112 z m -0.77953,0.47448 c 1.01938,-0.005 2.76333,-0.005 3.70776,0 0.75454,0.005 0.14985,0.0112 -1.75394,0.0112 -2.07375,0 -2.89826,-0.005 -1.95382,-0.0112 z m -32.62733,0.14099 v 0.82183 l 50.00039,-0.003 v -0.0729 10e-4 c 0,0 -17.49899,-0.009 -13.75974,-0.0211 2.7983,-0.009 13.75974,0.009 13.75974,0.009 v -0.73208 l -50.00039,-10e-4 z m 4.90857,0.18304 c 1.11433,-0.005 2.26364,-0.005 2.82831,10e-4 0.34978,0.009 -0.39977,0.015 -1.8539,0.015 -1.69896,-10e-4 -2.10872,-0.009 -0.97441,-0.015 z m -4.90857,0.68844 v 0.13505 l 50.00039,-10e-4 v -0.1318 l -50.00039,-10e-4 z m 50.00039,0.20166 -50.00039,10e-4 v 0.13179 c 0,0 4.52882,-4e-4 6.27575,0 3.55785,5.1e-4 -6.27575,10e-4 -6.27575,10e-4 v 0.0543 0.024 0.0372 c 0,0 4.92357,-0.0179 5.49623,-0.0387 0.4997,-0.0211 1.68398,-0.032 2.43852,-0.0241 0.8445,0.009 1.05937,0.0269 0.68458,0.0371 -0.19987,0.005 41.38106,0.0113 41.38106,0.0113 z m -15.12843,0.13505 c 1.39916,-0.005 3.85268,-0.005 5.17239,0 1.39915,0.005 0.19987,0.0113 -2.63342,0.0113 -2.75834,0 -3.85766,-0.005 -2.53847,-0.0113 z m -21.66689,0.0418 c 1.34918,0 2.12871,0.0113 1.55905,0.0241 -0.56465,0.015 -1.18428,0.0241 -1.55905,0.0241 -0.39977,0 -0.89947,-0.0113 -1.46412,-0.0241 -0.44973,-0.015 0.14985,-0.0241 1.46412,-0.0241 z m -13.20507,0.12867 v 0.076 h 50.00039 v -0.076 z m 50.00039,0.0931 -50.00039,0.003 v 0.15663 h 50.00039 z m 0,0.20944 -50.00039,0.003 v 0.22474 0.0465 l 50.00039,-10e-4 z m -42.16308,0.22475 c 1.8139,-0.005 4.53227,-0.005 5.85596,10e-4 1.39915,0.005 -0.10001,0.0113 -3.318,0.0113 -3.30301,-2.7e-4 -4.42731,-0.005 -2.53846,-0.0113 z m 10.93088,10e-4 c 1.39917,-0.005 3.75275,-0.005 5.07494,0 1.1793,0.005 0.19989,0.0113 -2.53846,0.0113 -2.75833,0 -3.85767,-0.005 -2.53846,-0.0113 z m -0.49968,0.14098 c -10.98436,3.5e-4 -18.26851,0.001 -18.26851,0.001 v 0.13645 c 0,0 7.58146,-0.009 19.73212,-0.009 17.03869,-5.1e-4 30.26827,0.0113 30.26827,0.0113 v -0.13957 c 0,0 -16.01589,-4.1e-4 -31.73188,0 z m 31.73188,0.14433 -50.00039,10e-4 v 0.0945 l 50.00039,0.005 -50.00039,0.0269 v 0.15033 l 50.00039,-10e-4 z m -9.77266,0.19384 c 5.55264,0 9.77266,0.018 9.77266,0.018 0,0 -5.26039,0.018 -10.45574,0.018 -5.17488,0 -9.46728,-0.009 -9.46728,-0.018 0,-0.009 4.59722,-0.018 10.15036,-0.018 z m -21.47152,0.018 c 2.22865,-0.005 5.43122,-0.003 7.32007,10e-4 1.81391,0.005 0.0209,0.009 -4.00258,0.009 -4.02256,-1.6e-4 -5.54714,-0.005 -3.31799,-0.0112 z m 31.24418,0.16114 -50.00039,10e-4 v 0.15813 l 50.00039,-10e-4 v -0.0387 0.003 c 0,0 -20.29479,-0.003 -14.45883,-0.009 3.9626,-0.003 14.45883,0 14.45883,0 v -0.0387 c 0,0 -24.34885,-0.003 -24.21844,-0.005 0.10001,-0.003 24.21844,-0.003 24.21844,-0.003 z m -28.99953,0.0652 c 1.11432,-0.005 2.26363,-0.005 2.82829,0.003 0.34978,0.009 -0.39976,0.0113 -1.85388,0.0113 -1.69898,-10e-4 -2.10874,-0.009 -0.97441,-0.015 z m -21.00086,0.0495 c 0,0 6.10085,-0.005 7.04529,10e-4 0.8195,0.005 -0.19988,0.0113 -2.53847,0.0113 -2.45351,-4.1e-4 -4.50682,-0.0113 -4.50682,-0.0113 z m 14.36437,0 c 2.22865,-0.005 5.43121,-0.005 7.32007,0 1.81389,0.005 -0.1,0.0113 -4.09753,0.0113 -4.02255,-1.8e-4 -5.44921,-0.005 -3.21804,-0.0113 z m 35.63602,0.11017 -50.00039,0.005 v 0.0606 l 50.00039,10e-4 z m -50.00039,0.21243 v 0.015 l 50.00039,-0.003 v -0.0113 z m 18.26851,0.0652 c -11.39261,-5.1e-4 -18.26851,0.005 -18.26851,0.005 v 0.0387 l 50.00039,0.009 v -0.001 -0.0527 c 0,0 -12.06726,10e-4 -31.73288,0 z m -18.26851,0.11469 v 0.009 l 50.00039,-10e-4 v -0.005 z m 0,0.10378 v 0.0418 l 50.00039,-10e-4 v -0.0401 z m 0,0.23884 v 0.0113 l 50.00039,0.005 v -0.0179 z m 50.00039,0.27907 -50.00039,10e-4 v 0.009 c 0,0 2.00533,0.009 5.1904,0.0113 19.73109,0.003 44.80999,0.0269 44.80999,0.0269 z m 0,0.19383 -50.00039,0.003 v 10e-4 l 50.00039,0.0113 z m -34.26986,0.30702 c -15.73053,0.003 34.26986,0.005 34.26986,0.005 v -0.005 c 0,0 -24.84305,-0.001 -34.26986,0 z" />
    <rect
       style="opacity:0.75;fill:url(#linearGradient1786);fill-opacity:1;fill-rule:evenodd;stroke-width:28.758;paint-order:markers fill stroke"
       id="rect1936-6"
       width="50.001606"
       height="25.594826"
       x="100.99806"
       y="829.46753" />
    <path
       inkscape:connector-curvature="0"
       id="path2255-1"
       style="opacity:0.25;fill:url(#linearGradient1788);fill-opacity:1;stroke-width:0.795577"
       d="m 100.99893,830.6444 v 0.0822 h 50.00038 v -0.0822 z m 0,2.36466 v 0.27755 h 50.00038 v -0.27755 z m 0,2.13824 v 0.0453 h 50.00038 v -0.0453 z m 0,3.22216 v 0.14735 h 50.00038 v -0.14735 z m 0,1.9057 v 0.0467 h 50.00038 v -0.0467 z m 0,0.80011 v 0.15664 h 50.00038 v -0.15664 z m 0,1.7088 v 0.0572 h 50.00038 v -0.0572 z m 0,1.84521 v 0.0698 h 50.00038 v -0.0698 z m 0,0.96603 v 0.2667 h 50.00038 v -0.2667 z m 0,1.46221 v 0.031 h 50.00038 v -0.031 z m 0,0.62029 v 0.29772 h 50.00038 v -0.29772 z m 0,1.6095 v 0.15506 h 50.00038 v -0.15506 z m 0,1.853 v 0.0604 h 50.00038 v -0.0604 z m 0,0.61867 v 0.0555 h 50.00038 v -0.0555 z m 0,0.92721 v 0.1908 h 50.00038 v -0.1908 z"
       class="ColorScheme-Text" />
    <path
       inkscape:connector-curvature="0"
       class="error"
       d="m 100.99893,830.6444 v 0.0822 h 30.78781 l 0.33483,0.0572 0.19132,-0.0572 h 18.68642 v -0.0822 z m 0,2.36468 v 0.27756 h 7.2296 9.10949 l 16.00922,0.10776 7.3958,-0.10776 10.25627,-3e-5 v -0.27755 l -10.1886,-0.003 -5.83999,5.1e-4 z m 0,2.13822 v 0.0453 h 50.00038 v -0.0453 z m 0,3.22216 v 0.14735 h 29.37195 l 0.90193,-0.0141 4.64494,0.0141 h 15.08156 v -0.14735 h -14.26983 z m 0,1.9057 v 0.0467 h 50.00038 v -0.0467 z m 0,0.80011 v 0.15664 h 18.639 l 4.73514,0.0539 1.03721,-0.0539 h 25.58903 v -0.15664 z m 0,1.7088 v 0.0572 h 50.00038 v -0.0572 z m 0,1.84521 v 0.0698 h 50.00038 v -0.0698 h -9.86939 l -1.21138,0.0348 -1.13239,-0.0348 z m 0,0.96603 v 0.2667 h 50.00038 v -0.2667 z m 0,1.46221 v 0.031 h 50.00038 v -0.031 z m 0,0.62029 v 0.29772 h 29.68763 l 2.52541,-0.0809 6.44878,0.0809 h 11.33856 v -0.29772 h -19.05005 l -6.71937,0.0807 -15.96412,-0.0836 z m 0,1.6095 v 0.15506 h 9.43932 l 2.80846,0.0327 2.8737,-0.0327 h 34.8789 v -0.15506 h -34.20246 l -4.55474,0.0298 -2.84107,-0.0298 z m 0,1.853 v 0.0604 h 43.94938 l 0.29312,-0.008 0.27058,0.008 h 5.4873 v -0.0604 z m 0,0.61867 v 0.0555 h 50.00038 v -0.0555 h -2.73641 l -0.48479,0.0141 -0.5186,-0.0141 z m 0,0.92721 v 0.1908 h 50.00038 v -0.1908 h -23.66095 l -0.49037,0.0498 -0.45032,-0.0498 z"
       style="opacity:0.75;fill:currentColor;stroke-width:0.795577"
       id="rect1678-8" />
  </g>
</svg>
